<?xml version="1.0" encoding="utf-8"?>
<!-- Generator: Adobe Illustrator 17.1.0, SVG Export Plug-In . SVG Version: 6.00 Build 0)  -->
<!DOCTYPE svg PUBLIC "-//W3C//DTD SVG 1.1 Tiny//EN" "http://www.w3.org/Graphics/SVG/1.1/DTD/svg11-tiny.dtd">
<svg version="1.1" baseProfile="tiny" id="Your_Icon"
	 xmlns="http://www.w3.org/2000/svg" xmlns:xlink="http://www.w3.org/1999/xlink" x="0px" y="0px" viewBox="0 0 100 100"
	 xml:space="preserve">
<g>
	<g>
		<path fill="#FFFFFF" d="M50,87.8h-4.6c-0.9,0-1.7-0.8-1.7-1.7c0-3.9-6.6-4-6.6-4c-0.1,0-0.1,0-0.2,0L1.5,77.2
			C0.6,77.1,0,76.4,0,75.5V19.1c0-0.9,0.8-1.7,1.7-1.7c0.9,0,1.7,0.8,1.7,1.7V74l33.8,4.7c3.1,0.1,8.5,1.3,9.7,5.7H50
			c0.9,0,1.7,0.8,1.7,1.7C51.7,87.1,50.9,87.8,50,87.8L50,87.8z"/>
	</g>
	<g>
		<path fill="#FFFFFF" d="M54.6,87.8H50c-0.9,0-1.7-0.8-1.7-1.7c0-0.9,0.8-1.7,1.7-1.7h3.1c1.1-4.3,6.6-5.6,9.7-5.7L96.6,74V19.1
			c0-0.9,0.8-1.7,1.7-1.7c0.9,0,1.7,0.8,1.7,1.7v56.4c0,0.9-0.6,1.6-1.5,1.7l-35.4,4.9c-0.1,0-0.1,0-0.2,0c-0.1,0-6.6,0.1-6.6,4
			C56.3,87.1,55.5,87.8,54.6,87.8L54.6,87.8z"/>
	</g>
	<g>
		<g>
			<path fill="#FFFFFF" d="M94.1,12.7c-0.4-0.3-0.9-0.5-1.4-0.4l-32.1,4.9c-4.7,0.8-7.6,2.2-9.4,3.6v62.3c0.3-0.3,0.4-0.7,0.4-1.1
				c0-4.2,4.4-5.3,4.8-5.3l36.8-5.9c0.8-0.1,1.4-0.8,1.4-1.7V14C94.7,13.5,94.5,13,94.1,12.7z"/>
		</g>
		<g>
			<path fill="#FFFFFF" d="M48.7,20.9c-1.8-1.4-4.7-2.8-9.4-3.6l-32-4.9c-0.5-0.1-1,0.1-1.4,0.4C5.5,13,5.3,13.5,5.3,14v55.1
				c0,0.8,0.6,1.6,1.4,1.7l36.8,5.9c0.4,0.1,4.8,1.1,4.8,5.3c0,0.4,0.2,0.8,0.4,1.1L48.7,20.9L48.7,20.9z"/>
		</g>
	</g>
</g>
</svg>
