<?xml version="1.0" encoding="utf-8"?>
<!-- Generator: Adobe Illustrator 17.1.0, SVG Export Plug-In . SVG Version: 6.00 Build 0)  -->
<!DOCTYPE svg PUBLIC "-//W3C//DTD SVG 1.1 Tiny//EN" "http://www.w3.org/Graphics/SVG/1.1/DTD/svg11-tiny.dtd">
<svg version="1.1" baseProfile="tiny" id="Layer_1" xmlns="http://www.w3.org/2000/svg" xmlns:xlink="http://www.w3.org/1999/xlink"
	 x="0px" y="0px" viewBox="111 90 565 791.9" xml:space="preserve">
<g id="Captions">
</g>
<g id="Your_Icon">
	<g>
		<path fill="#FFFFFF" d="M261.4,345.6v-22.9c0-11.1,1.6-21.3,4-31.7l0,0c1.6-4.8,2.3-9.4,4-13.4c16-42.9,53.3-75,98.8-83.8
			c86.4-16.7,157.5,43.8,157.5,131.9v154.8c0,0.3-0.1,0.4-0.4,0.4H393.5H274h-76h-75.5c-6.3,0-11.5,5.2-11.5,11.5v63v165.4v87V863
			v7.9c0,4,2.3,7.9,6.3,9.4c1.6,0.8,3.1,1.6,4.8,1.6h106.8h164.6h271c6.3,0,11.5-5.2,11.5-11.5v-63v-86.2v-21.3v-55.2v-10.3v-80.7
			v-62.8c0-6.3-5.2-11.5-11.5-11.5h-31.7c-0.3,0-0.4-0.1-0.4-0.4v-150V317c0-0.8,0-1.6-0.6-2.3c0-0.1-0.1-0.1-0.1-0.3v-4.5l0,0
			c-3.1-43.6-18.2-83.1-41.9-117.1c-26.1-37.2-61.7-66.5-104.5-84.7c-14.2-5.6-29.2-10.3-44.3-13.4c-15.8-3.1-31.7-4.7-47.4-4.7
			c-10.3,0-20.6,0.8-30.9,2.3c-26.9,3.1-53,11.9-76.8,23.8C212.2,153.3,160,227.7,155.2,314.7c0,0.8-0.8,1.6-0.8,2.3v11.9v97
			c0,0.3,0.1,0.4,0.4,0.4h31.3h41.1H259h1.9c0.3,0,0.4-0.1,0.4-0.4V399c0-0.3-0.1-0.4-0.4-0.4 M431.5,765.6L431.5,765.6L431.5,765.6
			c0,16.7-18.2,30.9-38,30.9c-19.8,0-37.2-13.4-37.2-30.1v-0.8l0,0v-2.3v-74.2c0-0.1-0.1-0.3-0.1-0.4c-3.9-2.3-7.8-5.4-10.9-8.5l0,0
			c-26.1-26.1-26.9-68-1.6-94.1c0.8-0.8,0.8-1.6,1.6-2.3c26.9-26.9,69.7-26.9,96.6,0c19.8,19.8,24.6,47.4,15.8,72
			c-3.1,8.7-8.7,17.5-15.8,24.6c-3.1,3.1-7,6.2-10.1,8.5c-0.1,0.1-0.1,0.1-0.1,0.3V723v10.3v32.3H431.5z"/>
	</g>
</g>
</svg>
