<?xml version="1.0" encoding="utf-8"?>
<!-- Generator: Adobe Illustrator 17.1.0, SVG Export Plug-In . SVG Version: 6.00 Build 0)  -->
<!DOCTYPE svg PUBLIC "-//W3C//DTD SVG 1.1 Tiny//EN" "http://www.w3.org/Graphics/SVG/1.1/DTD/svg11-tiny.dtd">
<svg version="1.1" baseProfile="tiny" id="Your_Icon"
	 xmlns="http://www.w3.org/2000/svg" xmlns:xlink="http://www.w3.org/1999/xlink" x="0px" y="0px" viewBox="0 0 100 100"
	 xml:space="preserve">
<g>
	<g>
		<path fill="#FFFFFF" d="M94.9,33.3c-0.1-3.7-1.6-6.7-5.5-8.5c-1.6-0.7-3.2-1.1-5-1.1c-1.5,0-2.9,0-4.4,0c-0.8,0-1.2,0.3-1.5,1
			c-0.8,1.5-1.6,3-2.5,4.4c-0.1,0.2-0.3,0.4-0.4,0.5c-0.2,0.3-0.4,0.2-0.6-0.1c-0.9-1.7-1.9-3.3-2.8-5c-0.3-0.5-0.6-0.8-1.1-0.8
			c-2.1,0-4.2-0.2-6.3,0.1c-4.3,0.7-8.2,3.2-8.8,9.3c-0.1,0.8-0.2,0.9-0.8,0.5c-1.3-0.9-2.6-1.8-3.8-2.9c-1.1-0.9-2.4-0.9-3.6-0.5
			c-0.5,0.2-0.8,0.2-1.2-0.1c-0.4-0.3-0.9-0.6-1.3-0.9c-2.9-2.2-5.9-4.3-8.8-6.5c-2.2-1.6-4.4-3.3-6.6-4.9c-0.6-0.5-0.9-0.5-1.3,0.1
			c-0.4,0.5-0.4,0.8,0.3,1.4c0.7,0.6,1.4,1.1,2.2,1.7c3.3,2.4,6.7,4.9,10,7.3c1.3,1,2.7,2,4,2.9c0.6,0.4,0.9,0.8,0.7,1.7
			c-0.3,1.8,0.3,3.1,1.7,4.1c3.3,2.4,6.5,4.7,9.8,7.1c1.5,1.1,3.8,1,4.8-0.2c0.7-0.8,0.9-1.7,0.9-2.7c0-1.7,0-3.5,0-5.2
			c0-0.4,0.2-0.9,0.4-1c0.5-0.1,1,0,1.5,0c0.1,0,0.2,0.4,0.2,0.6c0,0.5,0,1,0,1.5c0,19.7,0,31.7,0,51.4c0,1.2-0.1,2.5,0.5,3.7
			c1,2.1,2.6,2.9,4.7,2.7c1.8-0.2,3.1-1.3,3.9-3.1c0.3-0.9,0.4-1.7,0.4-2.6c0-12.6,0-17.5,0-30c0-0.4,0-0.7,0-1.1c0-0.6,0.1-1,0.8-1
			c0.8,0,1,0.2,1,1c0,0.3,0,0.6,0,0.8c0,12.7,0,17.7,0,30.4c0,2,0.5,3.7,2.1,4.8c2.6,1.8,6,0.8,7.2-2.6c0.2-0.7,0.2-1.6,0.2-2.4
			c0-7.5,0-5.9,0-13.4c0-2.3,0-6.2,0-8.5c0-10.2,0-20.5,0-30.7c0-0.2,0-0.3,0-0.5c-0.1-0.7,0.2-1,0.9-1c0.9,0,1,0.1,1.1,1
			c0,0.7,0,1.4,0,2.1c0,5.5,0,11,0,16.4c0,1.1,0.3,2,0.9,2.9c1.5,2.1,4.5,1.7,5.6-0.3c0.4-0.7,0.7-1.7,0.7-2.5
			C95,47.4,95.1,40.3,94.9,33.3z M56.6,46.4c-0.6-0.4-1.1-0.8-1.7-1.2c-0.5-0.4-0.7-0.3-0.8,0.4c-0.1,0.6-0.1,1.3,0,1.9
			c0,0.7-0.2,1-0.8,1c-0.3,0-0.6,0-0.9,0c-14,0-27.9,0-41.9,0c-0.2,0-0.4,0-0.7,0c-0.6,0-0.8-0.3-0.8-0.9c0-0.6,0-1.1,0-1.7
			C9,35.9,9,26,9,16c0-0.2,0-0.4,0-0.6c0-1.6,0-1.6,1.4-1.6c14.1,0,28.1,0,42.2,0c0.2,0,0.3,0,0.4,0c0.9,0,1,0.1,1,1.1
			c0,2.9,0,5.8,0,8.7c0,1.2,0,2.4,0,3.6c0,0.4,0.1,0.8,0.2,1.1c0.2,0.3,0.5,0.5,0.8,0.5c0.1,0,0.3-0.4,0.5-0.7
			c0.6-1,1.2-1.9,1.8-2.9c0.4-0.6,0.6-1.1,0.6-1.9c0-3.8,0-7.6,0-11.4c0-1.9-0.8-2.7-2.5-2.7c-8,0-16,0-24.1,0c-7.9,0-15.9,0-23.8,0
			c-1.2,0-2,0.4-2.4,1.7C5.1,11.6,5,12,5,12.4c0,12.5,0,25,0,37.5c0,1.8,1.2,2.9,2.7,2.9c15.7,0,31.5,0,47.2,0
			c0.6,0,1.3-0.1,1.9-0.4c0.4-0.2,0.9-0.6,1-1.1c0.2-0.9,0.2-1.9,0.2-2.8C58.1,47.3,57.3,46.9,56.6,46.4z M75.6,22.2
			c4.1,0,8-3.7,7.8-8.7c0-5.3-3.6-8.4-7.9-8.5c-3.9-0.1-7.8,3-7.8,8.6C67.6,18.6,71.4,22.2,75.6,22.2z"/>
	</g>
</g>
</svg>
